HIERARCHY
ROOT Hips
{
    OFFSET   0.000000   0.000000   0.000000
    CHANNELS 6 Xposition Yposition Zposition Zrotation Xrotation Yrotation
    JOINT Chest
    {
        OFFSET   0.000000   8.007230   0.000000
        CHANNELS 3 Zrotation Xrotation Yrotation
        JOINT Chest2
        {
            OFFSET   0.000000  22.077100   0.000000
            CHANNELS 3 Zrotation Xrotation Yrotation
            JOINT Neck
            {
                OFFSET   0.000000  23.254700   0.000000
                CHANNELS 3 Zrotation Xrotation Yrotation
                JOINT Head
                {
                    OFFSET   0.000010  14.370000   1.956610
                    CHANNELS 3 Zrotation Xrotation Yrotation
                    End Site
                    {
                        OFFSET   0.000000  19.566000   0.000000
                    }
                }
            }
            JOINT LeftCollar
            {
                OFFSET   3.911900  19.017000  -0.467063
                CHANNELS 3 Zrotation Xrotation Yrotation
                JOINT LeftShoulder
                {
                    OFFSET  10.383700   0.000000   0.000000
                    CHANNELS 3 Zrotation Xrotation Yrotation
                    JOINT LeftElbow
                    {
                        OFFSET  26.662100   0.001671   0.000522
                        CHANNELS 3 Zrotation Xrotation Yrotation
                        JOINT LeftWrist
                        {
                            OFFSET  28.869000   0.000037  -0.000114
                            CHANNELS 3 Zrotation Xrotation Yrotation
                            JOINT LeftFinger0
                            {
                                OFFSET   2.044650  -2.323450   3.252850
                                CHANNELS 3 Zrotation Xrotation Yrotation
                                JOINT LeftFinger01
                                {
                                    OFFSET   3.088140   0.000000   0.000000
                                    CHANNELS 3 Zrotation Xrotation Yrotation
                                    JOINT LeftFinger02
                                    {
                                        OFFSET   2.639460   0.000000   0.000000
                                        CHANNELS 3 Zrotation Xrotation Yrotation
                                        End Site
                                        {
                                            OFFSET   2.582190   0.000000   0.000000
                                        }
                                    }
                                }
                            }
                            JOINT LeftFinger1
                            {
                                OFFSET   8.364480   0.000000   3.252850
                                CHANNELS 3 Zrotation Xrotation Yrotation
                                JOINT LeftFinger11
                                {
                                    OFFSET   4.646930   0.000000   0.000000
                                    CHANNELS 3 Zrotation Xrotation Yrotation
                                    JOINT LeftFinger12
                                    {
                                        OFFSET   2.323470   0.000000   0.000000
                                        CHANNELS 3 Zrotation Xrotation Yrotation
                                        End Site
                                        {
                                            OFFSET   2.273050   0.000000   0.000000
                                        }
                                    }
                                }
                            }
                            JOINT LeftFinger2
                            {
                                OFFSET   8.364490   0.000016   1.078090
                                CHANNELS 3 Zrotation Xrotation Yrotation
                                JOINT LeftFinger21
                                {
                                    OFFSET   5.111620   0.000000   0.000000
                                    CHANNELS 3 Zrotation Xrotation Yrotation
                                    JOINT LeftFinger22
                                    {
                                        OFFSET   2.788150   0.000013   0.000000
                                        CHANNELS 3 Zrotation Xrotation Yrotation
                                        End Site
                                        {
                                            OFFSET   2.727660   0.000000   0.000000
                                        }
                                    }
                                }
                            }
                            JOINT LeftFinger3
                            {
                                OFFSET   7.899780   0.000016  -1.078090
                                CHANNELS 3 Zrotation Xrotation Yrotation
                                JOINT LeftFinger31
                                {
                                    OFFSET   4.646930   0.000000   0.000000
                                    CHANNELS 3 Zrotation Xrotation Yrotation
                                    JOINT LeftFinger32
                                    {
                                        OFFSET   2.323470   0.000000   0.000000
                                        CHANNELS 3 Zrotation Xrotation Yrotation
                                        End Site
                                        {
                                            OFFSET   2.273050   0.000000   0.000000
                                        }
                                    }
                                }
                            }
                            JOINT LeftFinger4
                            {
                                OFFSET   7.435080   0.000000  -3.252850
                                CHANNELS 3 Zrotation Xrotation Yrotation
                                JOINT LeftFinger41
                                {
                                    OFFSET   3.717550   0.000000   0.000000
                                    CHANNELS 3 Zrotation Xrotation Yrotation
                                    JOINT LeftFinger42
                                    {
                                        OFFSET   1.858760   0.000000   0.000000
                                        CHANNELS 3 Zrotation Xrotation Yrotation
                                        End Site
                                        {
                                            OFFSET   1.818440   0.000000   0.000000
                                        }
                                    }
                                }
                            }
                        }
                    }
                }
            }
            JOINT RightCollar
            {
                OFFSET  -3.911900  19.017000  -0.467064
                CHANNELS 3 Zrotation Xrotation Yrotation
                JOINT RightShoulder
                {
                    OFFSET -10.383700   0.000000   0.000000
                    CHANNELS 3 Zrotation Xrotation Yrotation
                    JOINT RightElbow
                    {
                        OFFSET -26.662100   0.001633   0.000260
                        CHANNELS 3 Zrotation Xrotation Yrotation
                        JOINT RightWrist
                        {
                            OFFSET -28.869000  -0.000045  -0.000080
                            CHANNELS 3 Zrotation Xrotation Yrotation
                            JOINT RightFinger0
                            {
                                OFFSET  -2.044660  -2.323490   3.252850
                                CHANNELS 3 Zrotation Xrotation Yrotation
                                JOINT RightFinger01
                                {
                                    OFFSET  -3.088140   0.000000   0.000000
                                    CHANNELS 3 Zrotation Xrotation Yrotation
                                    JOINT RightFinger02
                                    {
                                        OFFSET  -2.639450   0.000000   0.000000
                                        CHANNELS 3 Zrotation Xrotation Yrotation
                                        End Site
                                        {
                                            OFFSET  -2.582190   0.000000   0.000000
                                        }
                                    }
                                }
                            }
                            JOINT RightFinger1
                            {
                                OFFSET  -8.364480   0.000000   3.252850
                                CHANNELS 3 Zrotation Xrotation Yrotation
                                JOINT RightFinger11
                                {
                                    OFFSET  -4.646920   0.000000   0.000000
                                    CHANNELS 3 Zrotation Xrotation Yrotation
                                    JOINT RightFinger12
                                    {
                                        OFFSET  -2.323470   0.000000   0.000000
                                        CHANNELS 3 Zrotation Xrotation Yrotation
                                        End Site
                                        {
                                            OFFSET  -2.273050   0.000000   0.000000
                                        }
                                    }
                                }
                            }
                            JOINT RightFinger2
                            {
                                OFFSET  -8.364480   0.000000   1.078090
                                CHANNELS 3 Zrotation Xrotation Yrotation
                                JOINT RightFinger21
                                {
                                    OFFSET  -5.111610   0.000000   0.000000
                                    CHANNELS 3 Zrotation Xrotation Yrotation
                                    JOINT RightFinger22
                                    {
                                        OFFSET  -2.788160   0.000000   0.000000
                                        CHANNELS 3 Zrotation Xrotation Yrotation
                                        End Site
                                        {
                                            OFFSET  -2.727660   0.000000   0.000000
                                        }
                                    }
                                }
                            }
                            JOINT RightFinger3
                            {
                                OFFSET  -7.899780   0.000000  -1.078090
                                CHANNELS 3 Zrotation Xrotation Yrotation
                                JOINT RightFinger31
                                {
                                    OFFSET  -4.646930   0.000000   0.000000
                                    CHANNELS 3 Zrotation Xrotation Yrotation
                                    JOINT RightFinger32
                                    {
                                        OFFSET  -2.323470   0.000000   0.000000
                                        CHANNELS 3 Zrotation Xrotation Yrotation
                                        End Site
                                        {
                                            OFFSET  -2.273050   0.000000   0.000000
                                        }
                                    }
                                }
                            }
                            JOINT RightFinger4
                            {
                                OFFSET  -7.435090   0.000000  -3.252850
                                CHANNELS 3 Zrotation Xrotation Yrotation
                                JOINT RightFinger41
                                {
                                    OFFSET  -3.717550   0.000000   0.000000
                                    CHANNELS 3 Zrotation Xrotation Yrotation
                                    JOINT RightFinger42
                                    {
                                        OFFSET  -1.858760   0.000000   0.000000
                                        CHANNELS 3 Zrotation Xrotation Yrotation
                                        End Site
                                        {
                                            OFFSET  -1.818440   0.000000   0.000000
                                        }
                                    }
                                }
                            }
                        }
                    }
                }
            }
        }
    }
    JOINT LeftHip
    {
        OFFSET   9.782990   0.000000   0.000000
        CHANNELS 3 Zrotation Xrotation Yrotation
        JOINT LeftKnee
        {
            OFFSET  -0.000063 -41.789100   0.001657
            CHANNELS 3 Zrotation Xrotation Yrotation
            JOINT LeftAnkle
            {
                OFFSET   0.000078 -41.133200  -0.000113
                CHANNELS 3 Zrotation Xrotation Yrotation
                JOINT LeftToe
                {
                    OFFSET   0.000000  -6.358970  14.674500
                    CHANNELS 3 Zrotation Xrotation Yrotation
                    End Site
                    {
                        OFFSET   0.000000   0.000000   3.913200
                    }
                }
            }
        }
    }
    JOINT RightHip
    {
        OFFSET  -9.782990   0.000000   0.000000
        CHANNELS 3 Zrotation Xrotation Yrotation
        JOINT RightKnee
        {
            OFFSET   0.000053 -41.789200   0.000277
            CHANNELS 3 Zrotation Xrotation Yrotation
            JOINT RightAnkle
            {
                OFFSET   0.000030 -41.133200  -0.000150
                CHANNELS 3 Zrotation Xrotation Yrotation
                JOINT RightToe
                {
                    OFFSET   0.000000  -6.358960  14.674500
                    CHANNELS 3 Zrotation Xrotation Yrotation
                    End Site
                    {
                        OFFSET   0.000000   0.000000   3.913200
                    }
                }
            }
        }
    }
}
MOTION
Frames: 4
Frame Time:   0.016667
  1.365050  89.587800  -1.608470  -3.103120  -7.798240  -3.654040   0.904676   5.443520  -0.588709   1.878580  10.876700  -1.272800   1.284480  -1.757120   0.038906   2.119120  -3.555850   8.173550  -3.115350   0.241430   2.761410 -73.269400  22.529400  -4.068220  -2.771470  -5.853280 -20.310300  14.682900 -11.030800   8.362600  38.793600  32.686000 -56.490400 -33.532200   0.010191   0.006817 -11.766900   0.005718  -0.005811 -26.723600   1.186510  -2.364410 -21.884700   0.009343   0.002354 -15.319300   0.005839   0.003334 -28.701200   1.267390  -2.321900 -39.648900  -0.001396   0.000079 -26.397900  -0.001631  -0.000340 -27.847900  -1.282740   2.426980 -31.185500   0.008434   0.002527 -20.769600   0.004004   0.005629 -30.628700  -1.398900   2.361970 -45.962500   0.004848   0.006856 -30.613800  -0.003529   0.005560   7.435630   0.355683   7.311300  69.987700  20.739300  -0.666725  -2.689870  -1.285400  16.107000 -12.925500  -6.392690   2.357600 -38.057500  29.967100  62.978100  30.099600   0.002714  -0.009959  10.048300   0.001167   0.008099  30.183100   7.323960  12.362600  25.345100  -0.002428  -0.001626  17.741600  -0.002600   0.002934  28.472000   4.474010   8.182620  43.018100   0.005988   0.003341  28.650100   0.003941  -0.001067  28.419100   3.768630   6.924820  38.142900   0.003912  -0.000667  25.403200   0.002102  -0.001637  36.625500  -0.157097  -0.211264  54.949900   0.004113  -0.000133  36.589300   0.001931  -0.001998   1.673040  10.092000   2.586780   0.400159   0.076922   4.099740  -0.230038  -3.100230   1.851130   0.000000   0.000000   0.000000   2.552030   9.263120  -1.393790  -0.020573   1.827110  -5.418450  -1.249140  -3.916990   0.730672  -0.000000   0.000000   0.000000
  1.369930  89.587800  -1.608580  -3.104020  -7.798230  -3.654530   0.904750   5.450580  -0.588736   1.878840  10.890800  -1.272940   1.284310  -1.757190   0.038908   2.118640  -3.556090   8.165300  -3.115340   0.241182   2.761140 -73.260100  22.550700  -4.068860  -2.786110  -5.902040 -20.285900  14.675000 -11.042900   8.362960  38.782300  32.670800 -56.500800 -33.534600   0.010189   0.006808 -11.767700   0.005718  -0.005809 -26.731300   1.192920  -2.371480 -21.891200   0.009336   0.002353 -15.323900   0.005834   0.003331 -28.700800   1.273640  -2.329060 -39.642600  -0.001388   0.000083 -26.397900  -0.001636  -0.000337 -27.848100  -1.278500   2.418750 -31.196800   0.008434   0.002527 -20.777100   0.004000   0.005629 -30.629300  -1.394050   2.354080 -45.962500   0.004851   0.006861 -30.613500  -0.003529   0.005564   7.435720   0.355752   7.311320  69.980300  20.740300  -0.677744  -2.687710  -1.289440  16.148800 -12.925600  -6.405260   2.351860 -38.056700  29.973800  62.970100  30.105800   0.002715  -0.009969  10.052100   0.001166   0.008098  30.181500   7.316750  12.351700  25.343000  -0.002421  -0.001635  17.740100  -0.002594   0.002935  28.475100   4.463580   8.163340  43.018200   0.005999   0.003332  28.650200   0.003947  -0.001069  28.421000   3.760550   6.909880  38.143200   0.003922  -0.000671  25.403400   0.002113  -0.001639  36.630200  -0.157146  -0.211334  54.951900   0.004125  -0.000140  36.593900   0.001936  -0.002004   1.672720  10.093700   2.586820   0.399091   0.078822   4.099690  -0.230434  -3.101950   1.851010  -0.000000   0.000000  -0.000000   2.550640   9.263460  -1.385730  -0.020359   1.827080  -5.426960  -1.249140  -3.917360   0.730390   0.000000   0.000000   0.000000
  1.377660  89.587800  -1.608750  -3.106040  -7.798220  -3.656090   0.904874   5.461310  -0.588887   1.879280  10.912300  -1.273550   1.284070  -1.757260   0.038910   2.117850  -3.556380   8.151410  -3.115330   0.240933   2.760880 -73.246100  22.583900  -4.069850  -2.808980  -5.976690 -20.251100  14.667200 -11.064500   8.363600  38.758000  32.639400 -56.518900 -33.541600   0.010187   0.006800 -11.770800   0.005721  -0.005801 -26.743300   1.199330  -2.378560 -21.901300   0.009316   0.002347 -15.330900   0.005821   0.003322 -28.700400   1.279880  -2.336220 -39.636400  -0.001368   0.000091 -26.397900  -0.001645  -0.000328 -27.848500  -1.272010   2.406190 -31.213100   0.008434   0.002526 -20.787900   0.003990   0.005627 -30.630200  -1.386690   2.342000 -45.962500   0.004861   0.006876 -30.613300  -0.003531   0.005575   7.435860   0.355895   7.311360  69.966000  20.746700  -0.695422  -2.682510  -1.302070  16.212000 -12.926100  -6.426710   2.338960 -38.057200  29.980100  62.961700  30.117300   0.002720  -0.009991  10.058700   0.001165   0.008098  30.182000   7.304890  12.332100  25.341000  -0.002404  -0.001656  17.738600  -0.002578   0.002946  28.480100   4.446520   8.131790  43.018800   0.006025   0.003310  28.650500   0.003965  -0.001075  28.424100   3.746600   6.883970  38.145200   0.003958  -0.000689  25.404700   0.002142  -0.001647  36.639600  -0.157244  -0.211470  54.959800   0.004157  -0.000167  36.603300   0.001952  -0.002019   1.672350  10.096300   2.586880   0.396585   0.081614   4.099600  -0.230768  -3.105600   1.850890  -0.000000   0.000000   0.000000   2.548730   9.263830  -1.374480  -0.020046   1.827010  -5.438610  -1.249080  -3.917720   0.730107  -0.000000   0.000000  -0.000000
  1.382930  89.587700  -1.608870  -3.109000  -7.800400  -3.659070   0.905001   5.467890  -0.589603   1.879710  10.925400  -1.275190   1.283960  -1.755230   0.038895   2.116840  -3.552860   8.139610  -3.113620   0.242419   2.762110 -73.237400  22.605900  -4.070410  -2.826810  -6.024570 -20.234100  14.669000 -11.084800   8.361910  38.725200  32.599700 -56.534600 -33.555100   0.010194   0.006825 -11.777500   0.005725  -0.005789 -26.751200   1.194900  -2.369050 -21.907500   0.009284   0.002335 -15.335300   0.005801   0.003305 -28.701800   1.274880  -2.327000 -39.647600  -0.001339   0.000102 -26.405300  -0.001654  -0.000312 -27.848800  -1.268950   2.400300 -31.219000   0.008433   0.002524 -20.791900   0.003975   0.005624 -30.630800  -1.383310   2.336280 -45.963000   0.004877   0.006901 -30.613300  -0.003534   0.005595   7.435990   0.356086   7.311420  69.949500  20.767800  -0.705767  -2.670370  -1.325870  16.249600 -12.921900  -6.449630   2.320860 -38.049200  29.970500  62.960200  30.130500   0.002749  -0.010020  10.065400   0.001168   0.008111  30.191000   7.296490  12.313700  25.346700  -0.002378  -0.001680  17.742300  -0.002552   0.002973  28.483800   4.433720   8.108130  43.032900   0.006066   0.003279  28.659900   0.003995  -0.001083  28.425000   3.735110   6.862440  38.160500   0.004026  -0.000731  25.414900   0.002185  -0.001662  36.654300  -0.157375  -0.211641  54.981100   0.004208  -0.000218  36.617800   0.001978  -0.002039   1.672960  10.098400   2.586940   0.392658   0.082366   4.099510  -0.229750  -3.109740   1.850920   0.000000   0.000000   0.000000   2.547970   9.263850  -1.369910  -0.019998   1.826350  -5.442030  -1.246410  -3.916370   0.731794   0.000000   0.000000  -0.000000
